<?xml version="1.0" encoding="utf-8"?>
<!-- Generator: Adobe Illustrator 14.0.0, SVG Export Plug-In . SVG Version: 6.00 Build 43363)  -->
<!DOCTYPE svg PUBLIC "-//W3C//DTD SVG 1.1//EN" "http://www.w3.org/Graphics/SVG/1.1/DTD/svg11.dtd">
<svg version="1.1" id="Layer_1" xmlns="http://www.w3.org/2000/svg" xmlns:xlink="http://www.w3.org/1999/xlink" x="0px" y="0px"
	 width="150px" height="150px" viewBox="0 0 150 150" enable-background="new 0 0 150 150" xml:space="preserve">
<path fill="#D68F1E" d="M149.874,68.542c0,0.155,0.001,12.292,0.001,12.448c0,37.217-33.522,67.388-74.875,67.388
	S0.125,118.207,0.125,80.99c0-0.188,0-12.355,0.002-12.543C0.463,31.489,33.855,1.622,75,1.622
	C116.179,1.622,149.594,31.54,149.874,68.542z"/>
<g opacity="0.3">
	<defs>
		<path id="SVGID_1_" opacity="0.3" d="M149.874,68.542c0,0.155,0.001,12.292,0.001,12.448c0,37.217-33.522,67.388-74.875,67.388
			S0.125,118.207,0.125,80.99c0-0.188,0-12.355,0.002-12.543C0.463,31.489,33.855,1.622,75,1.622
			C116.179,1.622,149.594,31.54,149.874,68.542z"/>
	</defs>
	<clipPath id="SVGID_2_">
		<use xlink:href="#SVGID_1_"  overflow="visible"/>
	</clipPath>
	<g clip-path="url(#SVGID_2_)">
		<rect x="84.641" y="129.535" fill="#1A1A1A" width="6.271" height="22.213"/>
		<rect x="96.901" y="126.54" fill="#1A1A1A" width="5.803" height="22.214"/>
		<rect x="107.478" y="123.826" fill="#1A1A1A" width="5.335" height="22.213"/>
		<rect x="116.931" y="118.429" fill="#1A1A1A" width="4.866" height="22.213"/>
		<rect x="125.166" y="112.719" fill="#1A1A1A" width="4.399" height="22.214"/>
		<rect x="132.747" y="104.296" fill="#1A1A1A" width="3.932" height="22.213"/>
		<rect x="139.252" y="95.435" fill="#1A1A1A" width="3.463" height="22.214"/>
		<rect x="144.634" y="85.233" fill="#1A1A1A" width="2.995" height="22.213"/>
		<rect x="71.631" y="130.158" fill="#1A1A1A" width="6.738" height="22.213"/>
		<rect x="59.229" y="129.69" fill="#1A1A1A" width="6.271" height="22.213"/>
		<rect x="49.074" y="126.228" fill="#1A1A1A" width="5.803" height="22.213"/>
		<rect x="39.668" y="122.765" fill="#1A1A1A" width="5.335" height="22.213"/>
		<rect x="29.514" y="117.055" fill="#1A1A1A" width="4.866" height="22.214"/>
		<rect x="20.855" y="110.597" fill="#1A1A1A" width="4.399" height="22.214"/>
		<rect x="13.696" y="104.139" fill="#1A1A1A" width="3.931" height="22.214"/>
		<rect x="7.284" y="94.687" fill="#1A1A1A" width="3.464" height="22.213"/>
		<rect x="2.371" y="85.982" fill="#1A1A1A" width="2.995" height="22.213"/>
	</g>
</g>
<ellipse fill="#FCCD21" cx="75" cy="69.01" rx="74.875" ry="67.388"/>
<path opacity="0.1" fill="#FFFFFF" d="M106.24,92.702c13.421-12.5,27.146-38.277,19.425-60.881
	c20.702,22.358,16.553,57.805-4.721,78.392c-25.541,24.717-69.655,20.194-90.121-4.265C52.781,108.969,91.963,106.003,106.24,92.702
	z"/>
<path opacity="0.2" fill="#FFFFFF" d="M49.441,120.128c-4.326-2.18,7.534,2.784,21.438,3.082
	c15.789,0.338,35.406-3.687,49.231-18.906c14.155-15.586,16.144-36.135,14.975-49.605c-0.93-10.713-4.786-17.897-2.401-13.492
	c4.37,8.07,6.838,17.232,6.838,26.945c0,32.432-27.516,58.722-61.457,58.722C67.729,126.873,57.99,124.436,49.441,120.128z"/>
<path opacity="0.1" d="M44.578,43.904c-13.421,12.501-27.146,38.278-19.425,60.881C4.452,82.428,8.601,46.98,29.874,26.394
	c25.541-24.716,69.655-20.194,90.121,4.266C98.037,27.639,58.855,30.604,44.578,43.904z"/>
<path opacity="0.2" fill="#1A1A1A" d="M101.68,16.684c4.326,2.18-7.534-2.784-21.438-3.081c-15.789-0.338-35.406,3.686-49.23,18.905
	C16.854,48.095,14.867,68.643,16.036,82.113c0.929,10.713,4.786,17.897,2.4,13.493c-4.369-8.07-6.838-17.233-6.838-26.946
	c0-32.431,27.516-58.722,61.457-58.722C83.392,9.938,93.131,12.377,101.68,16.684z"/>
</svg>
