<?xml version="1.0" encoding="utf-8"?>
<!DOCTYPE svg PUBLIC "-//W3C//DTD SVG 1.1//EN" "http://www.w3.org/Graphics/SVG/1.1/DTD/svg11.dtd">
<svg version="1.1" id="logo_twitter" xmlns="http://www.w3.org/2000/svg" xmlns:xlink="http://www.w3.org/1999/xlink" x="0px" y="0px" width="80px" height="80px" viewBox="0 0 80 80">
	<path d="M70.558,17.766c3.555-2.131,5.956-5.144,7.208-9.035c-3.247,1.93-6.716,3.249-10.406,3.959 c-3.247-3.451-7.242-5.177-11.979-5.177c-4.534,0-8.401,1.599-11.6,4.797s-4.797,7.063-4.797,11.599 c0,1.219,0.135,2.471,0.406,3.756c-6.701-0.338-12.987-2.021-18.858-5.051C14.661,19.585,9.677,15.55,5.583,10.508 c-1.488,2.537-2.234,5.296-2.234,8.273c0,2.809,0.661,5.415,1.98,7.817c1.32,2.403,3.097,4.349,5.331,5.838 c-2.64-0.102-5.111-0.796-7.413-2.081v0.203c0,3.959,1.245,7.436,3.731,10.431c2.487,2.994,5.626,4.881,9.417,5.66 c-1.421,0.373-2.859,0.559-4.315,0.559c-0.947,0-1.979-0.084-3.096-0.254c1.049,3.283,2.978,5.98,5.787,8.096 c2.81,2.117,5.991,3.207,9.544,3.275c-5.956,4.67-12.741,7.006-20.356,7.006c-1.455,0-2.774-0.068-3.958-0.203 c7.614,4.906,16.005,7.359,25.177,7.359c5.821,0,11.287-0.922,16.396-2.766c5.109-1.846,9.477-4.316,13.097-7.412 c3.619-3.096,6.742-6.658,9.364-10.686c2.625-4.027,4.578-8.23,5.864-12.614c1.287-4.383,1.928-8.773,1.928-13.172 c0-0.948-0.016-1.659-0.05-2.133c3.214-2.335,5.956-5.161,8.224-8.477C76.852,16.582,73.706,17.427,70.558,17.766z"/>
</svg>
